<svg width="20" height="20" viewBox="0 0 20 20" fill="none" xmlns="http://www.w3.org/2000/svg">
<path d="M17 9.25899L10.3811 15.8779C9.57026 16.6887 8.47049 17.1443 7.32376 17.1443C6.17703 17.1443 5.07726 16.6887 4.2664 15.8779C3.45554 15.067 3 13.9672 3 12.8205C3 11.6738 3.45554 10.574 4.2664 9.76315L10.8853 3.14427C11.4259 2.60369 12.159 2.3 12.9235 2.3C13.688 2.3 14.4212 2.60369 14.9618 3.14427C15.5023 3.68484 15.806 4.41802 15.806 5.18251C15.806 5.947 15.5023 6.68018 14.9618 7.22075L8.33568 13.8396C8.06539 14.1099 7.6988 14.2618 7.31656 14.2618C6.93431 14.2618 6.56773 14.1099 6.29744 13.8396C6.02715 13.5693 5.8753 13.2028 5.8753 12.8205C5.8753 12.4383 6.02715 12.0717 6.29744 11.8014L12.4122 5.69387" stroke="#3F4FA5" stroke-width="1.8" stroke-linecap="round" stroke-linejoin="round"/>
</svg>
