<svg width="24" height="24" viewBox="0 0 24 24" fill="none" xmlns="http://www.w3.org/2000/svg">
<rect width="24" height="24" fill="white" fill-opacity="0.01"/>
<path fill-rule="evenodd" clip-rule="evenodd" d="M6 6.21875H17.7761C18.3284 6.21875 18.7761 6.66797 18.7761 7.21875V10.8906H5V7.21875C5 6.66797 5.44769 6.21875 6 6.21875ZM5 13.1133V18.9961C5 19.5469 5.44769 19.9961 6 19.9961H17.7761C18.3284 19.9961 18.7761 19.5469 18.7761 18.9961V13.1133H5ZM3 7.21875C3 5.5625 4.34314 4.21875 6 4.21875H17.7761C19.433 4.21875 20.7761 5.5625 20.7761 7.21875V18.9961C20.7761 20.6523 19.433 21.9961 17.7761 21.9961H6C4.34314 21.9961 3 20.6523 3 18.9961V7.21875Z" fill="#909090"/>
<rect x="7.44434" y="2" width="2.22202" height="6.66606" rx="1.11101" fill="#909090"/>
<rect x="14.1104" y="2" width="2.22202" height="6.66606" rx="1.11101" fill="#909090"/>
</svg>
