<svg width="24" height="24" viewBox="0 0 24 24" fill="none" xmlns="http://www.w3.org/2000/svg">
<rect width="24" height="24" fill="white" fill-opacity="0.01"/>
<path d="M17.3166 13.1264V17.3993C17.3166 17.8237 17.1841 18.2308 16.9483 18.5309C16.7125 18.831 16.3927 18.9996 16.0592 18.9996H7.2574C6.92392 18.9996 6.60409 18.831 6.36828 18.5309C6.13248 18.2308 6 17.8237 6 17.3993V6.19701C6 5.77257 6.13248 5.36552 6.36828 5.0654C6.60409 4.76528 6.92392 4.59668 7.2574 4.59668H10.6147" stroke="#909090" stroke-width="2" stroke-linecap="round" stroke-linejoin="round"/>
<path d="M16.2877 3.6759L10.4577 9.74533L9.60059 13.3437L13.201 12.4886L18.9127 6.65661M16.2877 3.6759L18.3122 1.7161C18.7173 1.32403 19.3661 1.34405 19.7462 1.76033L21.052 3.19041C21.4139 3.5868 21.3983 4.19823 21.0167 4.57568L18.9127 6.65661M16.2877 3.6759L18.9127 6.65661" stroke="#909090" stroke-width="1.5" stroke-linecap="round" stroke-linejoin="round"/>
</svg>
