<?xml version="1.0" encoding="UTF-8"?>
<svg width="20px" height="20px" viewBox="0 0 20 20" version="1.1" 
    xmlns="http://www.w3.org/2000/svg" 
    xmlns:xlink="http://www.w3.org/1999/xlink">
    <!-- Generator: Sketch 64 (93537) - https://sketch.com -->
    <title>Icon/20px/love [#1489]</title>
    <desc>Created with Sketch.</desc>
    <defs>
        <path d="M11.9933186,15.3489915 C11.4453186,15.8148173 10.7413186,16.0717212 10.0103186,16.0717212 C9.28031856,16.0717212 8.57431856,15.8158169 8.00431856,15.3349968 C4.41031856,12.3071293 2.12231856,10.7007301 2.00331856,7.40596241 C1.87831856,3.91926651 5.69831856,2.64474321 8.04031856,5.50967166 C8.51431856,6.08845518 9.22631856,6.42033105 9.99431856,6.42033105 C10.7693186,6.42033105 11.4863186,6.08445668 11.9613186,5.49867577 C14.2523186,2.67973012 18.1743186,3.88028109 17.9953186,7.50792427 C17.8353186,10.7347174 15.4593186,12.4010941 11.9933186,15.3489915 M10.3873186,4.31012032 C10.2893186,4.43107508 10.1413186,4.49205227 9.99431856,4.49205227 C9.85031856,4.49205227 9.70731856,4.43307433 9.61131856,4.31611808 C6.06831856,-0.0172611442 -0.187681436,2.14093164 0.00431856424,7.47293736 C0.157318564,11.7163502 3.16531856,13.8195636 6.70731856,16.8034475 C7.65431856,17.6011492 8.83231856,18 10.0103186,18 C11.1913186,18 12.3713186,17.5991499 13.3163186,16.7954505 C16.8193186,13.8155651 19.7893186,11.7263465 19.9923186,7.59889025 C20.2623186,2.14792903 13.9213186,-0.0412521711 10.3873186,4.31012032" id="path-heart"></path>
    </defs>
    <g id="Icon/20px/love-[#1489]" stroke="none" stroke-width="1" fill="none" fill-rule="evenodd">
        <mask id="mask-heart" fill="white">
            <use xlink:href="#path-heart"></use>
        </mask>
        <use id="love-[#1489]" fill-opacity="0" fill="#FFFFFF" xlink:href="#path-heart"></use>
        <g id="⚙️Atoms/Colour/Grey-Darker/1---100%" mask="url(#mask-heart)" fill="#9EA0A5">
            <g transform="translate(-1.000000, -1.000000)" id="Colour">
                <rect x="0" y="0" width="22" height="22"></rect>
            </g>
        </g>
    </g>
</svg>