<svg width="20" height="20" viewBox="0 0 20 20" fill="none" xmlns="http://www.w3.org/2000/svg">
<path d="M15.4444 3H4.55555C3.69644 3 3 3.69644 3 4.55555V15.4444C3 16.3035 3.69644 17 4.55555 17H15.4444C16.3035 17 17 16.3035 17 15.4444V4.55555C17 3.69644 16.3035 3 15.4444 3Z" stroke="#3F4FA5" stroke-width="1.8" stroke-linecap="round" stroke-linejoin="round"/>
<path d="M7.27775 8.44443C7.92208 8.44443 8.44441 7.9221 8.44441 7.27776C8.44441 6.63343 7.92208 6.1111 7.27775 6.1111C6.63342 6.1111 6.11108 6.63343 6.11108 7.27776C6.11108 7.9221 6.63342 8.44443 7.27775 8.44443Z" stroke="#3F4FA5" stroke-width="1.8" stroke-linecap="round" stroke-linejoin="round"/>
<path d="M17 12.3333L13.1111 8.44444L4.55554 17" stroke="#3F4FA5" stroke-width="1.8" stroke-linecap="round" stroke-linejoin="round"/>
</svg>
