<?xml version="1.0" encoding="UTF-8"?>
<svg width="14px" height="14px" viewBox="0 0 20 20" version="1.1" 
    xmlns="http://www.w3.org/2000/svg" 
    xmlns:xlink="http://www.w3.org/1999/xlink">
    <!-- Generator: Sketch 63.1 (92452) - https://sketch.com -->
    <title>Icon/20px/link_round [#1110]</title>
    <desc>Created with Sketch.</desc>
    <defs>
        <path d="M18.2387431,1.76127893 C15.8904007,-0.587092975 12.0827382,-0.587092975 9.73439575,1.76127893 L7.16555163,4.33015523 L8.58277581,5.74739717 L11.1516199,3.17852087 C12.7181839,1.61193731 15.2539527,1.61193731 16.821519,3.17852087 C18.3840738,4.74209755 18.3840738,7.28491424 16.821519,8.84849092 L14.2526748,11.4173672 L15.669899,12.8346092 L18.2387431,10.2657329 C20.5870856,7.91736096 20.5870856,4.10965083 18.2387431,1.76127893 L18.2387431,1.76127893 Z M8.84838006,16.8207274 C8.09165852,17.5784607 7.08436693,17.9954145 6.01393169,17.9954145 C4.94349645,17.9954145 3.93620487,17.5784607 3.17948332,16.8207274 C1.61592623,15.258153 1.61592623,12.714334 3.17948332,11.1517597 L5.74832744,8.58288335 L4.33010098,7.16463911 L1.76125686,9.73351542 C-0.58708562,12.0818873 -0.58708562,15.8895975 1.76125686,18.2389716 C2.93592924,19.4126565 4.47442933,20 6.01393169,20 C7.55343406,20 9.09193415,19.4126565 10.2666065,18.2389716 L12.8354507,15.6700953 L11.4172242,14.2518511 L8.84838006,16.8207274 Z M12.2631487,6.31970633 L13.6803728,7.73694827 L7.72181713,13.6955786 L6.30459295,12.2783367 L12.2631487,6.31970633 Z" id="link-path-1"></path>
    </defs>
    <g id="(8)-App-1---Social-Network" stroke="none" stroke-width="1" fill="none" fill-rule="evenodd">
        <g id="Homefeed" transform="translate(-227.000000, -318.000000)">
            <g id="Icon/20px/link_round-[#1110]" transform="translate(227.000000, 318.000000)">
                <mask id="link-mask-2" fill="white">
                    <use xlink:href="#link-path-1"></use>
                </mask>
                <use id="link_round-[#1110]" fill-opacity="0" fill="#FFFFFF" fill-rule="evenodd" xlink:href="#link-path-1"></use>
                <g id="⚙️Atoms/Colour/Grey-Darker/1---100%" mask="url(#link-mask-2)" fill="#9EA0A5" fill-rule="evenodd">
                    <g transform="translate(-1.000000, -1.000000)" id="Colour">
                        <rect x="0" y="0" width="22" height="22"></rect>
                    </g>
                </g>
            </g>
        </g>
    </g>
</svg>