<svg width="24" height="24" viewBox="0 0 24 24" fill="none" xmlns="http://www.w3.org/2000/svg">
<rect width="24" height="24" fill="white" fill-opacity="0.01"/>
<path d="M18.4 11.1016H5.8C4.80589 11.1016 4 11.9074 4 12.9016V19.2016C4 20.1957 4.80589 21.0016 5.8 21.0016H18.4C19.3941 21.0016 20.2 20.1957 20.2 19.2016V12.9016C20.2 11.9074 19.3941 11.1016 18.4 11.1016Z" stroke="#909090" stroke-width="2" stroke-linecap="round" stroke-linejoin="round"/>
<path d="M7.59961 11.1V7.5C7.59961 6.30653 8.07372 5.16193 8.91763 4.31802C9.76154 3.47411 10.9061 3 12.0996 3C13.2931 3 14.4377 3.47411 15.2816 4.31802C16.1255 5.16193 16.5996 6.30653 16.5996 7.5V11.1" stroke="#909090" stroke-width="2" stroke-linecap="round" stroke-linejoin="round"/>
</svg>
