<svg width="20" height="20" viewBox="0 0 20 20" fill="none" xmlns="http://www.w3.org/2000/svg">
<path d="M13.8333 6.63334C13.8333 5.48406 13.3768 4.38186 12.5641 3.56921C11.7515 2.75655 10.6493 2.3 9.5 2.3C8.35073 2.3 7.24853 2.75655 6.43587 3.56921C5.62321 4.38186 5.16667 5.48406 5.16667 6.63334C5.16667 11.6889 3 13.1333 3 13.1333H16C16 13.1333 13.8333 11.6889 13.8333 6.63334Z" stroke="#3F4FA5" stroke-width="1.8" stroke-linecap="round" stroke-linejoin="round"/>
<path d="M10.7495 16.0222C10.6225 16.2411 10.4403 16.4228 10.221 16.5491C10.0017 16.6754 9.75311 16.7419 9.50005 16.7419C9.247 16.7419 8.99839 16.6754 8.77911 16.5491C8.55983 16.4228 8.37758 16.2411 8.25061 16.0222" stroke="#3F4FA5" stroke-width="1.8" stroke-linecap="round" stroke-linejoin="round"/>
</svg>
